<mxfile host="Electron" modified="2024-05-02T01:25:20.083Z" agent="Mozilla/5.0 (Windows NT 10.0; Win64; x64) AppleWebKit/537.36 (KHTML, like Gecko) draw.io/21.2.8 Chrome/112.0.5615.165 Electron/24.2.0 Safari/537.36" etag="V3VpfDKBjiW0bu5Ryq8_" version="21.2.8" type="device">
  <diagram name="Page-1" id="2Mz0G6K2aamsR4nf2J-o">
    <mxGraphModel dx="2537" dy="993" grid="1" gridSize="10" guides="1" tooltips="1" connect="1" arrows="1" fold="1" page="1" pageScale="1" pageWidth="850" pageHeight="1100" math="0" shadow="0">
      <root>
        <mxCell id="0" />
        <mxCell id="1" parent="0" />
        <mxCell id="DUBB1z0GMZBmKU2dSvhY-42" value="VPC" style="sketch=0;outlineConnect=0;gradientColor=none;html=1;whiteSpace=wrap;fontSize=12;fontStyle=0;shape=mxgraph.aws4.group;grIcon=mxgraph.aws4.group_vpc;strokeColor=#879196;fillColor=none;verticalAlign=top;align=left;spacingLeft=30;fontColor=#879196;dashed=0;" vertex="1" parent="1">
          <mxGeometry x="160" y="360" width="500" height="570" as="geometry" />
        </mxCell>
        <mxCell id="DUBB1z0GMZBmKU2dSvhY-48" style="edgeStyle=orthogonalEdgeStyle;rounded=0;orthogonalLoop=1;jettySize=auto;html=1;" edge="1" parent="1" source="DUBB1z0GMZBmKU2dSvhY-43" target="DUBB1z0GMZBmKU2dSvhY-42">
          <mxGeometry relative="1" as="geometry" />
        </mxCell>
        <mxCell id="DUBB1z0GMZBmKU2dSvhY-43" value="" style="rounded=0;whiteSpace=wrap;html=1;dashed=1;" vertex="1" parent="1">
          <mxGeometry x="180" y="380" width="470" height="60" as="geometry" />
        </mxCell>
        <mxCell id="DUBB1z0GMZBmKU2dSvhY-44" value="" style="edgeStyle=orthogonalEdgeStyle;rounded=0;orthogonalLoop=1;jettySize=auto;html=1;entryX=0.5;entryY=0;entryDx=0;entryDy=0;" edge="1" parent="1" source="DUBB1z0GMZBmKU2dSvhY-1" target="DUBB1z0GMZBmKU2dSvhY-6">
          <mxGeometry relative="1" as="geometry" />
        </mxCell>
        <mxCell id="DUBB1z0GMZBmKU2dSvhY-1" value="" style="rounded=0;whiteSpace=wrap;html=1;dashed=1;" vertex="1" parent="1">
          <mxGeometry x="180" y="90" width="470" height="120" as="geometry" />
        </mxCell>
        <mxCell id="DUBB1z0GMZBmKU2dSvhY-3" value="Users" style="sketch=0;outlineConnect=0;fontColor=#232F3E;gradientColor=none;strokeColor=#232F3E;fillColor=#ffffff;dashed=0;verticalLabelPosition=bottom;verticalAlign=top;align=center;html=1;fontSize=12;fontStyle=0;aspect=fixed;shape=mxgraph.aws4.resourceIcon;resIcon=mxgraph.aws4.users;" vertex="1" parent="1">
          <mxGeometry x="270" y="140" width="30" height="30" as="geometry" />
        </mxCell>
        <mxCell id="DUBB1z0GMZBmKU2dSvhY-4" value="Admin" style="sketch=0;outlineConnect=0;fontColor=#232F3E;gradientColor=none;strokeColor=#232F3E;fillColor=#ffffff;dashed=0;verticalLabelPosition=bottom;verticalAlign=top;align=center;html=1;fontSize=12;fontStyle=0;aspect=fixed;shape=mxgraph.aws4.resourceIcon;resIcon=mxgraph.aws4.users;" vertex="1" parent="1">
          <mxGeometry x="495.9" y="140" width="40" height="40" as="geometry" />
        </mxCell>
        <mxCell id="DUBB1z0GMZBmKU2dSvhY-47" style="edgeStyle=orthogonalEdgeStyle;rounded=0;orthogonalLoop=1;jettySize=auto;html=1;entryX=0.5;entryY=0;entryDx=0;entryDy=0;" edge="1" parent="1" source="DUBB1z0GMZBmKU2dSvhY-6" target="DUBB1z0GMZBmKU2dSvhY-43">
          <mxGeometry relative="1" as="geometry" />
        </mxCell>
        <mxCell id="DUBB1z0GMZBmKU2dSvhY-6" value="" style="rounded=0;whiteSpace=wrap;html=1;dashed=1;" vertex="1" parent="1">
          <mxGeometry x="180" y="250" width="470" height="100" as="geometry" />
        </mxCell>
        <mxCell id="DUBB1z0GMZBmKU2dSvhY-7" value="Internet Zone" style="text;html=1;strokeColor=none;fillColor=none;align=center;verticalAlign=middle;whiteSpace=wrap;rounded=0;" vertex="1" parent="1">
          <mxGeometry x="20" y="260" width="170" height="30" as="geometry" />
        </mxCell>
        <mxCell id="DUBB1z0GMZBmKU2dSvhY-10" value="" style="outlineConnect=0;dashed=0;verticalLabelPosition=bottom;verticalAlign=top;align=center;html=1;shape=mxgraph.aws3.cloudfront;fillColor=#F58536;gradientColor=none;" vertex="1" parent="1">
          <mxGeometry x="270" y="270" width="40" height="40" as="geometry" />
        </mxCell>
        <mxCell id="DUBB1z0GMZBmKU2dSvhY-11" value="" style="sketch=0;points=[[0,0,0],[0.25,0,0],[0.5,0,0],[0.75,0,0],[1,0,0],[0,1,0],[0.25,1,0],[0.5,1,0],[0.75,1,0],[1,1,0],[0,0.25,0],[0,0.5,0],[0,0.75,0],[1,0.25,0],[1,0.5,0],[1,0.75,0]];outlineConnect=0;fontColor=#232F3E;gradientColor=#F54749;gradientDirection=north;fillColor=#C7131F;strokeColor=#ffffff;dashed=0;verticalLabelPosition=bottom;verticalAlign=top;align=center;html=1;fontSize=12;fontStyle=0;aspect=fixed;shape=mxgraph.aws4.resourceIcon;resIcon=mxgraph.aws4.network_firewall;" vertex="1" parent="1">
          <mxGeometry x="395" y="270" width="40" height="40" as="geometry" />
        </mxCell>
        <mxCell id="DUBB1z0GMZBmKU2dSvhY-12" value="" style="sketch=0;outlineConnect=0;fontColor=#232F3E;gradientColor=none;fillColor=#B0084D;strokeColor=none;dashed=0;verticalLabelPosition=bottom;verticalAlign=top;align=center;html=1;fontSize=12;fontStyle=0;aspect=fixed;pointerEvents=1;shape=mxgraph.aws4.shield_shield_advanced;" vertex="1" parent="1">
          <mxGeometry x="520" y="270" width="35.9" height="40" as="geometry" />
        </mxCell>
        <mxCell id="DUBB1z0GMZBmKU2dSvhY-14" value="Cloudfront" style="text;html=1;strokeColor=none;fillColor=none;align=center;verticalAlign=middle;whiteSpace=wrap;rounded=0;" vertex="1" parent="1">
          <mxGeometry x="260" y="320" width="60" height="30" as="geometry" />
        </mxCell>
        <mxCell id="DUBB1z0GMZBmKU2dSvhY-15" value="WAF" style="text;html=1;strokeColor=none;fillColor=none;align=center;verticalAlign=middle;whiteSpace=wrap;rounded=0;" vertex="1" parent="1">
          <mxGeometry x="385" y="320" width="60" height="30" as="geometry" />
        </mxCell>
        <mxCell id="DUBB1z0GMZBmKU2dSvhY-16" value="Advanced shield" style="text;html=1;strokeColor=none;fillColor=none;align=center;verticalAlign=middle;whiteSpace=wrap;rounded=0;" vertex="1" parent="1">
          <mxGeometry x="490" y="320" width="130" height="30" as="geometry" />
        </mxCell>
        <mxCell id="DUBB1z0GMZBmKU2dSvhY-17" value="" style="sketch=0;outlineConnect=0;fontColor=#232F3E;gradientColor=none;fillColor=#4D27AA;strokeColor=none;dashed=0;verticalLabelPosition=bottom;verticalAlign=top;align=center;html=1;fontSize=12;fontStyle=0;aspect=fixed;pointerEvents=1;shape=mxgraph.aws4.nat_gateway;" vertex="1" parent="1">
          <mxGeometry x="535" y="390" width="40" height="40" as="geometry" />
        </mxCell>
        <mxCell id="DUBB1z0GMZBmKU2dSvhY-57" style="edgeStyle=orthogonalEdgeStyle;rounded=0;orthogonalLoop=1;jettySize=auto;html=1;entryX=0.5;entryY=0;entryDx=0;entryDy=0;" edge="1" parent="1" source="DUBB1z0GMZBmKU2dSvhY-18" target="DUBB1z0GMZBmKU2dSvhY-55">
          <mxGeometry relative="1" as="geometry" />
        </mxCell>
        <mxCell id="DUBB1z0GMZBmKU2dSvhY-18" value="" style="rounded=0;whiteSpace=wrap;html=1;dashed=1;" vertex="1" parent="1">
          <mxGeometry x="180" y="520" width="200" height="100" as="geometry" />
        </mxCell>
        <mxCell id="DUBB1z0GMZBmKU2dSvhY-25" value="" style="sketch=0;points=[[0,0,0],[0.25,0,0],[0.5,0,0],[0.75,0,0],[1,0,0],[0,1,0],[0.25,1,0],[0.5,1,0],[0.75,1,0],[1,1,0],[0,0.25,0],[0,0.5,0],[0,0.75,0],[1,0.25,0],[1,0.5,0],[1,0.75,0]];outlineConnect=0;fontColor=#232F3E;gradientColor=#F78E04;gradientDirection=north;fillColor=#D05C17;strokeColor=#ffffff;dashed=0;verticalLabelPosition=bottom;verticalAlign=top;align=center;html=1;fontSize=12;fontStyle=0;aspect=fixed;shape=mxgraph.aws4.resourceIcon;resIcon=mxgraph.aws4.ec2;" vertex="1" parent="1">
          <mxGeometry x="260" y="540" width="40" height="40" as="geometry" />
        </mxCell>
        <mxCell id="DUBB1z0GMZBmKU2dSvhY-27" value="" style="rounded=0;whiteSpace=wrap;html=1;dashed=1;" vertex="1" parent="1">
          <mxGeometry x="295" y="810" width="200" height="100" as="geometry" />
        </mxCell>
        <mxCell id="DUBB1z0GMZBmKU2dSvhY-29" value="" style="outlineConnect=0;dashed=0;verticalLabelPosition=bottom;verticalAlign=top;align=center;html=1;shape=mxgraph.aws3.rds;fillColor=#2E73B8;gradientColor=none;" vertex="1" parent="1">
          <mxGeometry x="375" y="840" width="40" height="40" as="geometry" />
        </mxCell>
        <mxCell id="DUBB1z0GMZBmKU2dSvhY-61" style="edgeStyle=orthogonalEdgeStyle;rounded=0;orthogonalLoop=1;jettySize=auto;html=1;entryX=0.5;entryY=0;entryDx=0;entryDy=0;" edge="1" parent="1" source="DUBB1z0GMZBmKU2dSvhY-31" target="DUBB1z0GMZBmKU2dSvhY-27">
          <mxGeometry relative="1" as="geometry" />
        </mxCell>
        <mxCell id="DUBB1z0GMZBmKU2dSvhY-31" value="" style="rounded=0;whiteSpace=wrap;html=1;dashed=1;" vertex="1" parent="1">
          <mxGeometry x="435" y="670" width="200" height="100" as="geometry" />
        </mxCell>
        <mxCell id="DUBB1z0GMZBmKU2dSvhY-32" value="" style="sketch=0;points=[[0,0,0],[0.25,0,0],[0.5,0,0],[0.75,0,0],[1,0,0],[0,1,0],[0.25,1,0],[0.5,1,0],[0.75,1,0],[1,1,0],[0,0.25,0],[0,0.5,0],[0,0.75,0],[1,0.25,0],[1,0.5,0],[1,0.75,0]];outlineConnect=0;fontColor=#232F3E;gradientColor=#F78E04;gradientDirection=north;fillColor=#D05C17;strokeColor=#ffffff;dashed=0;verticalLabelPosition=bottom;verticalAlign=top;align=center;html=1;fontSize=12;fontStyle=0;aspect=fixed;shape=mxgraph.aws4.resourceIcon;resIcon=mxgraph.aws4.ec2;" vertex="1" parent="1">
          <mxGeometry x="517.9499999999999" y="680" width="40" height="40" as="geometry" />
        </mxCell>
        <mxCell id="DUBB1z0GMZBmKU2dSvhY-34" value="" style="rounded=0;whiteSpace=wrap;html=1;dashed=1;" vertex="1" parent="1">
          <mxGeometry x="435" y="520" width="200" height="100" as="geometry" />
        </mxCell>
        <mxCell id="DUBB1z0GMZBmKU2dSvhY-35" value="" style="sketch=0;points=[[0,0,0],[0.25,0,0],[0.5,0,0],[0.75,0,0],[1,0,0],[0,1,0],[0.25,1,0],[0.5,1,0],[0.75,1,0],[1,1,0],[0,0.25,0],[0,0.5,0],[0,0.75,0],[1,0.25,0],[1,0.5,0],[1,0.75,0]];outlineConnect=0;fontColor=#232F3E;gradientColor=#F78E04;gradientDirection=north;fillColor=#D05C17;strokeColor=#ffffff;dashed=0;verticalLabelPosition=bottom;verticalAlign=top;align=center;html=1;fontSize=12;fontStyle=0;aspect=fixed;shape=mxgraph.aws4.resourceIcon;resIcon=mxgraph.aws4.ec2;" vertex="1" parent="1">
          <mxGeometry x="515" y="540" width="40" height="40" as="geometry" />
        </mxCell>
        <mxCell id="DUBB1z0GMZBmKU2dSvhY-36" value="Public network" style="text;html=1;strokeColor=none;fillColor=none;align=center;verticalAlign=middle;whiteSpace=wrap;rounded=0;" vertex="1" parent="1">
          <mxGeometry x="20" y="120" width="170" height="30" as="geometry" />
        </mxCell>
        <mxCell id="DUBB1z0GMZBmKU2dSvhY-37" value="Ingree / Egress Tier" style="text;html=1;strokeColor=none;fillColor=none;align=center;verticalAlign=middle;whiteSpace=wrap;rounded=0;" vertex="1" parent="1">
          <mxGeometry x="20" y="380" width="170" height="30" as="geometry" />
        </mxCell>
        <mxCell id="DUBB1z0GMZBmKU2dSvhY-38" value="Web server" style="text;html=1;strokeColor=none;fillColor=none;align=center;verticalAlign=middle;whiteSpace=wrap;rounded=0;" vertex="1" parent="1">
          <mxGeometry x="207.5" y="590" width="145" height="20" as="geometry" />
        </mxCell>
        <mxCell id="DUBB1z0GMZBmKU2dSvhY-54" style="edgeStyle=orthogonalEdgeStyle;rounded=0;orthogonalLoop=1;jettySize=auto;html=1;entryX=0.5;entryY=0;entryDx=0;entryDy=0;exitX=0.5;exitY=1;exitDx=0;exitDy=0;" edge="1" parent="1" source="DUBB1z0GMZBmKU2dSvhY-34" target="DUBB1z0GMZBmKU2dSvhY-31">
          <mxGeometry relative="1" as="geometry" />
        </mxCell>
        <mxCell id="DUBB1z0GMZBmKU2dSvhY-39" value="Web server" style="text;html=1;strokeColor=none;fillColor=none;align=center;verticalAlign=middle;whiteSpace=wrap;rounded=0;" vertex="1" parent="1">
          <mxGeometry x="462.5" y="590" width="145" height="20" as="geometry" />
        </mxCell>
        <mxCell id="DUBB1z0GMZBmKU2dSvhY-41" value="Backend Server" style="text;html=1;strokeColor=none;fillColor=none;align=center;verticalAlign=middle;whiteSpace=wrap;rounded=0;" vertex="1" parent="1">
          <mxGeometry x="462.5" y="730" width="145" height="20" as="geometry" />
        </mxCell>
        <mxCell id="DUBB1z0GMZBmKU2dSvhY-50" value="Availability Zone A" style="fillColor=none;strokeColor=#147EBA;dashed=1;verticalAlign=top;fontStyle=0;fontColor=#147EBA;whiteSpace=wrap;html=1;" vertex="1" parent="1">
          <mxGeometry x="165" y="360" width="235" height="560" as="geometry" />
        </mxCell>
        <mxCell id="DUBB1z0GMZBmKU2dSvhY-51" value="Availability Zone B" style="fillColor=none;strokeColor=#147EBA;dashed=1;verticalAlign=top;fontStyle=0;fontColor=#147EBA;whiteSpace=wrap;html=1;" vertex="1" parent="1">
          <mxGeometry x="410" y="360" width="240" height="560" as="geometry" />
        </mxCell>
        <mxCell id="DUBB1z0GMZBmKU2dSvhY-59" style="edgeStyle=orthogonalEdgeStyle;rounded=0;orthogonalLoop=1;jettySize=auto;html=1;entryX=0.5;entryY=0;entryDx=0;entryDy=0;" edge="1" parent="1" source="DUBB1z0GMZBmKU2dSvhY-55" target="DUBB1z0GMZBmKU2dSvhY-27">
          <mxGeometry relative="1" as="geometry" />
        </mxCell>
        <mxCell id="DUBB1z0GMZBmKU2dSvhY-69" style="edgeStyle=orthogonalEdgeStyle;rounded=0;orthogonalLoop=1;jettySize=auto;html=1;" edge="1" parent="1" source="DUBB1z0GMZBmKU2dSvhY-55" target="DUBB1z0GMZBmKU2dSvhY-66">
          <mxGeometry relative="1" as="geometry" />
        </mxCell>
        <mxCell id="DUBB1z0GMZBmKU2dSvhY-55" value="" style="rounded=0;whiteSpace=wrap;html=1;dashed=1;" vertex="1" parent="1">
          <mxGeometry x="180" y="670" width="200" height="100" as="geometry" />
        </mxCell>
        <mxCell id="DUBB1z0GMZBmKU2dSvhY-56" value="" style="sketch=0;points=[[0,0,0],[0.25,0,0],[0.5,0,0],[0.75,0,0],[1,0,0],[0,1,0],[0.25,1,0],[0.5,1,0],[0.75,1,0],[1,1,0],[0,0.25,0],[0,0.5,0],[0,0.75,0],[1,0.25,0],[1,0.5,0],[1,0.75,0]];outlineConnect=0;fontColor=#232F3E;gradientColor=#F78E04;gradientDirection=north;fillColor=#D05C17;strokeColor=#ffffff;dashed=0;verticalLabelPosition=bottom;verticalAlign=top;align=center;html=1;fontSize=12;fontStyle=0;aspect=fixed;shape=mxgraph.aws4.resourceIcon;resIcon=mxgraph.aws4.ec2;" vertex="1" parent="1">
          <mxGeometry x="309.99999999999994" y="995" width="40" height="40" as="geometry" />
        </mxCell>
        <mxCell id="DUBB1z0GMZBmKU2dSvhY-58" value="Backend Server" style="text;html=1;strokeColor=none;fillColor=none;align=center;verticalAlign=middle;whiteSpace=wrap;rounded=0;" vertex="1" parent="1">
          <mxGeometry x="217.5" y="730" width="145" height="20" as="geometry" />
        </mxCell>
        <mxCell id="DUBB1z0GMZBmKU2dSvhY-62" value="" style="sketch=0;outlineConnect=0;fontColor=#232F3E;gradientColor=none;fillColor=#4D27AA;strokeColor=none;dashed=0;verticalLabelPosition=bottom;verticalAlign=top;align=center;html=1;fontSize=12;fontStyle=0;aspect=fixed;pointerEvents=1;shape=mxgraph.aws4.nat_gateway;" vertex="1" parent="1">
          <mxGeometry x="255" y="390" width="40" height="40" as="geometry" />
        </mxCell>
        <mxCell id="DUBB1z0GMZBmKU2dSvhY-63" value="Subnet" style="sketch=0;outlineConnect=0;gradientColor=none;html=1;whiteSpace=wrap;fontSize=12;fontStyle=0;shape=mxgraph.aws4.group;grIcon=mxgraph.aws4.group_subnet;strokeColor=#879196;fillColor=none;verticalAlign=top;align=left;spacingLeft=30;fontColor=#879196;dashed=0;" vertex="1" parent="1">
          <mxGeometry x="165" y="940" width="495" height="150" as="geometry" />
        </mxCell>
        <mxCell id="DUBB1z0GMZBmKU2dSvhY-64" value="Management Zone" style="text;html=1;strokeColor=none;fillColor=none;align=center;verticalAlign=middle;whiteSpace=wrap;rounded=0;" vertex="1" parent="1">
          <mxGeometry x="20" y="1000" width="170" height="30" as="geometry" />
        </mxCell>
        <mxCell id="DUBB1z0GMZBmKU2dSvhY-65" value="" style="sketch=0;points=[[0,0,0],[0.25,0,0],[0.5,0,0],[0.75,0,0],[1,0,0],[0,1,0],[0.25,1,0],[0.5,1,0],[0.75,1,0],[1,1,0],[0,0.25,0],[0,0.5,0],[0,0.75,0],[1,0.25,0],[1,0.5,0],[1,0.75,0]];outlineConnect=0;fontColor=#232F3E;gradientColor=#F78E04;gradientDirection=north;fillColor=#D05C17;strokeColor=#ffffff;dashed=0;verticalLabelPosition=bottom;verticalAlign=top;align=center;html=1;fontSize=12;fontStyle=0;aspect=fixed;shape=mxgraph.aws4.resourceIcon;resIcon=mxgraph.aws4.ec2;" vertex="1" parent="1">
          <mxGeometry x="254.99999999999994" y="680" width="40" height="40" as="geometry" />
        </mxCell>
        <mxCell id="DUBB1z0GMZBmKU2dSvhY-66" value="" style="rounded=0;whiteSpace=wrap;html=1;dashed=1;" vertex="1" parent="1">
          <mxGeometry x="-340" y="670" width="200" height="100" as="geometry" />
        </mxCell>
        <mxCell id="DUBB1z0GMZBmKU2dSvhY-67" value="" style="sketch=0;points=[[0,0,0],[0.25,0,0],[0.5,0,0],[0.75,0,0],[1,0,0],[0,1,0],[0.25,1,0],[0.5,1,0],[0.75,1,0],[1,1,0],[0,0.25,0],[0,0.5,0],[0,0.75,0],[1,0.25,0],[1,0.5,0],[1,0.75,0]];outlineConnect=0;fontColor=#232F3E;gradientColor=#F78E04;gradientDirection=north;fillColor=#D05C17;strokeColor=#ffffff;dashed=0;verticalLabelPosition=bottom;verticalAlign=top;align=center;html=1;fontSize=12;fontStyle=0;aspect=fixed;shape=mxgraph.aws4.resourceIcon;resIcon=mxgraph.aws4.ec2;" vertex="1" parent="1">
          <mxGeometry x="-260.00000000000006" y="690" width="40" height="40" as="geometry" />
        </mxCell>
        <mxCell id="DUBB1z0GMZBmKU2dSvhY-68" value="PCS" style="text;html=1;strokeColor=none;fillColor=none;align=center;verticalAlign=middle;whiteSpace=wrap;rounded=0;" vertex="1" parent="1">
          <mxGeometry x="-312.5" y="740" width="145" height="20" as="geometry" />
        </mxCell>
        <mxCell id="DUBB1z0GMZBmKU2dSvhY-72" style="edgeStyle=orthogonalEdgeStyle;rounded=0;orthogonalLoop=1;jettySize=auto;html=1;entryX=0;entryY=0.5;entryDx=0;entryDy=0;" edge="1" parent="1" source="DUBB1z0GMZBmKU2dSvhY-70" target="DUBB1z0GMZBmKU2dSvhY-66">
          <mxGeometry relative="1" as="geometry">
            <Array as="points">
              <mxPoint x="-470" y="550" />
              <mxPoint x="-390" y="550" />
              <mxPoint x="-390" y="720" />
            </Array>
          </mxGeometry>
        </mxCell>
        <mxCell id="DUBB1z0GMZBmKU2dSvhY-70" value="Alexa enabled&#xa;device" style="sketch=0;outlineConnect=0;fontColor=#232F3E;gradientColor=none;strokeColor=#232F3E;fillColor=#ffffff;dashed=0;verticalLabelPosition=bottom;verticalAlign=top;align=center;html=1;fontSize=12;fontStyle=0;aspect=fixed;shape=mxgraph.aws4.resourceIcon;resIcon=mxgraph.aws4.alexa_enabled_device;" vertex="1" parent="1">
          <mxGeometry x="-500" y="350" width="60" height="60" as="geometry" />
        </mxCell>
        <mxCell id="DUBB1z0GMZBmKU2dSvhY-73" style="edgeStyle=orthogonalEdgeStyle;rounded=0;orthogonalLoop=1;jettySize=auto;html=1;entryX=0.5;entryY=0;entryDx=0;entryDy=0;" edge="1" parent="1" source="DUBB1z0GMZBmKU2dSvhY-71" target="DUBB1z0GMZBmKU2dSvhY-66">
          <mxGeometry relative="1" as="geometry" />
        </mxCell>
        <mxCell id="DUBB1z0GMZBmKU2dSvhY-71" value="Alexa enabled&#xa;device" style="sketch=0;outlineConnect=0;fontColor=#232F3E;gradientColor=none;strokeColor=#232F3E;fillColor=#ffffff;dashed=0;verticalLabelPosition=bottom;verticalAlign=top;align=center;html=1;fontSize=12;fontStyle=0;aspect=fixed;shape=mxgraph.aws4.resourceIcon;resIcon=mxgraph.aws4.alexa_enabled_device;" vertex="1" parent="1">
          <mxGeometry x="-372.5" y="340" width="60" height="60" as="geometry" />
        </mxCell>
      </root>
    </mxGraphModel>
  </diagram>
</mxfile>
